<?xml version="1.0" encoding="UTF-8" standalone="no"?>
<svg width="360px" height="152px" viewBox="0 0 360 152" version="1.1" xmlns="http://www.w3.org/2000/svg" xmlns:xlink="http://www.w3.org/1999/xlink">
    <!-- Generator: Sketch 39.1 (31720) - http://www.bohemiancoding.com/sketch -->
    <title>pattern</title>
    <desc>Created with Sketch.</desc>
    <defs></defs>
    <g id="Page-1" stroke="none" stroke-width="1" fill="none" fill-rule="evenodd">
        <g id="Login---Dark" transform="translate(0.000000, -443.000000)" fill="#E0E0E0">
            <path d="M89.2857143,530.446183 L89.2857143,572.174341 L87.6785714,572.174341 L52.8571429,572.174341 L51.4285714,572.174341 L51.4285714,530.446183 L50.3571429,529.197904 L70.3571429,516.536797 L78.9285714,522.064886 L84.8214286,522.064886 L84.8214286,525.809721 L90.3571429,529.197904 L89.2857143,530.446183 L89.2857143,530.446183 Z M-5,593.216745 L-3.92857143,593.216745 L-3.92857143,578.059081 L-2.85714286,578.059081 L4.82142857,578.059081 L5.89285714,578.059081 L5.89285714,588.401958 L5.89285714,593.216745 L33.2142857,593.216745 L33.2142857,578.059081 L34.2857143,578.059081 L40,578.059081 L41.0714286,578.059081 L41.0714286,588.401958 L41.0714286,593.216745 L51.4285714,593.216745 L51.4285714,573.065968 L52.8571429,573.065968 L52.8571429,575.027548 L52.8571429,588.401958 L52.8571429,590.720189 L52.8571429,593.216745 L63.0357143,593.216745 L63.0357143,588.401958 L63.0357143,575.027548 L64.1071429,575.027548 L76.6071429,575.027548 L77.5,575.027548 L77.5,588.401958 L77.5,593.216745 L87.6785714,593.216745 L87.6785714,590.720189 L87.6785714,588.401958 L87.6785714,575.027548 L87.6785714,573.065968 L89.2857143,573.065968 L89.2857143,593.216745 L97.6785714,593.216745 L97.6785714,577.167454 C97.6785714,575.027548 99.8214286,573.422619 102.5,573.422619 C103.214286,573.422619 103.928571,573.600945 104.642857,573.77927 C105,568.429506 109.464286,564.149695 115,564.149695 C120.714286,564.149695 125.357143,568.786157 125.357143,574.492572 C125.357143,580.020661 121.071429,584.478798 115.714286,584.835449 L115.714286,593.216745 L114.285714,593.216745 L114.285714,584.835449 C111.428571,584.657123 108.928571,583.408845 107.321429,581.447265 L107.321429,593.216745 L242.5,593.216745 L242.5,577.167454 C242.5,575.027548 244.642857,573.422619 247.321429,573.422619 C250,573.422619 252.142857,575.027548 252.142857,577.167454 L252.142857,577.167454 L252.142857,593.216745 L264.642857,593.216745 L264.642857,585.013774 C259.285714,584.657123 255,580.198987 255,574.670897 C255,568.964482 259.642857,564.506346 265.357143,564.506346 C269.464286,564.506346 273.035714,566.824577 274.642857,570.391086 L274.642857,520.281631 L274.642857,518.855028 L327.142857,518.855028 L327.142857,520.281631 L327.142857,572.174341 L325.714286,572.174341 L276.25,572.174341 L275.357143,572.174341 C275.357143,572.530992 275.535714,572.887643 275.535714,573.244294 L276.25,573.244294 L276.25,575.027548 L276.25,588.401958 L276.25,590.720189 L276.25,593.216745 L291.25,593.216745 L291.25,588.401958 L291.25,575.027548 L292.321429,575.027548 L309.642857,575.027548 L310.714286,575.027548 L310.714286,588.401958 L310.714286,593.216745 L325.714286,593.216745 L325.714286,590.720189 L325.714286,588.401958 L325.714286,575.027548 L325.714286,573.244294 L327.142857,573.244294 L327.142857,593.216745 L328.214286,593.216745 L328.214286,578.237407 L329.285714,578.237407 L334.821429,578.237407 L335.892857,578.237407 L335.892857,588.401958 L335.892857,593.216745 L358.928571,593.216745 L358.928571,585.013774 C355.892857,584.657123 353.035714,583.230519 351.428571,580.733963 L351.428571,588.401958 L340,588.401958 L338.928571,588.401958 L336.964286,588.401958 L336.964286,578.237407 L338.928571,578.237407 L340,578.237407 L350,578.237407 C349.642857,577.345779 349.464286,576.454152 349.464286,575.384199 L327.142857,575.384199 L327.142857,554.876771 L327.142857,551.666913 L327.142857,548.992031 L329.821429,548.992031 L339.821429,537.400876 L349.821429,548.992031 L352.5,548.992031 L352.5,567.359553 C354.285714,565.576299 356.785714,564.506346 359.642857,564.506346 C365.357143,564.506346 370,568.964482 370,574.670897 C370,580.198987 365.714286,584.657123 360.357143,585.013774 L360.357143,593.216745 L370,593.216745 L370,595 L-5,595 L-5,593.216745 L-5,593.216745 Z M266.071429,593.216745 L274.642857,593.216745 L274.642857,578.950708 C273.214286,582.338892 269.821429,584.657123 266.071429,585.013774 L266.071429,593.216745 L266.071429,593.216745 Z M249.285714,577.167454 L245.357143,577.167454 L245.357143,578.594057 L249.285714,578.594057 L249.285714,577.167454 L249.285714,577.167454 Z M244.464286,580.198987 L247.142857,580.198987 L247.142857,581.982241 L244.464286,581.982241 L244.464286,580.198987 L244.464286,580.198987 Z M247.5,580.198987 L250.178571,580.198987 L250.178571,581.982241 L247.5,581.982241 L247.5,580.198987 L247.5,580.198987 Z M250.178571,582.160567 L250.178571,583.765496 L247.5,583.765496 L247.5,582.160567 L250.178571,582.160567 L250.178571,582.160567 Z M250.178571,584.122147 L250.178571,585.727076 L247.5,585.727076 L247.5,584.122147 L250.178571,584.122147 L250.178571,584.122147 Z M250.178571,585.905401 L250.178571,587.510331 L247.5,587.510331 L247.5,585.905401 L250.178571,585.905401 L250.178571,585.905401 Z M250.178571,587.866982 L250.178571,589.471911 L247.5,589.471911 L247.5,587.866982 L250.178571,587.866982 L250.178571,587.866982 Z M250.178571,589.650236 L250.178571,591.433491 L247.5,591.433491 L247.5,589.650236 L250.178571,589.650236 L250.178571,589.650236 Z M247.142857,591.433491 L244.464286,591.433491 L244.464286,589.650236 L247.142857,589.650236 L247.142857,591.433491 L247.142857,591.433491 Z M244.464286,589.471911 L244.464286,587.866982 L247.142857,587.866982 L247.142857,589.471911 L244.464286,589.471911 L244.464286,589.471911 Z M244.464286,587.510331 L244.464286,585.905401 L247.142857,585.905401 L247.142857,587.510331 L244.464286,587.510331 L244.464286,587.510331 Z M244.464286,585.727076 L244.464286,584.122147 L247.142857,584.122147 L247.142857,585.727076 L244.464286,585.727076 L244.464286,585.727076 Z M244.464286,583.765496 L244.464286,582.160567 L247.142857,582.160567 L247.142857,583.765496 L244.464286,583.765496 L244.464286,583.765496 Z M339.821429,550.061983 C343.035714,550.061983 345.535714,552.736865 345.535714,555.768398 L334.107143,555.768398 C334.107143,552.736865 336.607143,550.061983 339.821429,550.061983 L339.821429,550.061983 Z M340.892857,570.212761 L340,570.212761 L339.642857,570.212761 L337.678571,570.212761 L336.785714,570.212761 L335.178571,570.212761 L334.107143,570.212761 L334.107143,569.142808 L334.107143,567.537879 L334.107143,567.181228 L334.107143,565.576299 L334.107143,565.397973 L334.107143,563.793044 L334.107143,563.436393 L334.107143,561.831464 L334.107143,561.653139 L334.107143,560.048209 L334.107143,559.869884 L334.107143,558.086629 L334.107143,557.551653 L333.214286,557.551653 L333.214286,557.016677 L334.107143,557.016677 L335.178571,557.016677 L336.785714,557.016677 L337.678571,557.016677 L339.642857,557.016677 L340,557.016677 L340.892857,557.016677 L341.964286,557.016677 L342.142857,557.016677 L341.964286,557.016677 L342.857143,557.016677 L344.464286,557.016677 L345.535714,557.016677 L346.428571,557.016677 L346.428571,557.551653 L345.535714,557.551653 L345.535714,558.086629 L345.535714,559.869884 L345.535714,560.048209 L345.535714,561.653139 L345.535714,561.831464 L345.535714,563.436393 L345.535714,563.793044 L345.535714,565.397973 L345.535714,565.576299 L345.535714,567.181228 L345.535714,567.537879 L345.535714,569.142808 L345.535714,570.212761 L344.464286,570.212761 L342.857143,570.212761 L341.964286,570.212761 L342.142857,570.212761 L341.964286,570.212761 L340.892857,570.212761 L340.892857,570.212761 Z M340.892857,558.086629 L340,558.086629 L340,559.869884 L340.892857,559.869884 L341.964286,559.869884 L341.964286,558.086629 L340.892857,558.086629 L340.892857,558.086629 Z M340.892857,560.048209 L340,560.048209 L340,561.653139 L340.892857,561.653139 L341.964286,561.653139 L341.964286,560.048209 L340.892857,560.048209 L340.892857,560.048209 Z M340.892857,561.831464 L340,561.831464 L340,563.436393 L340.892857,563.436393 L341.964286,563.436393 L341.964286,561.831464 L340.892857,561.831464 L340.892857,561.831464 Z M340.892857,563.793044 L340,563.793044 L340,565.397973 L340.892857,565.397973 L341.964286,565.397973 L341.964286,563.793044 L340.892857,563.793044 L340.892857,563.793044 Z M340.892857,565.576299 L340,565.576299 L340,567.181228 L340.892857,567.181228 L341.964286,567.181228 L341.964286,565.576299 L340.892857,565.576299 L340.892857,565.576299 Z M340.892857,567.537879 L340,567.537879 L340,569.142808 L340.892857,569.142808 L341.964286,569.142808 L341.964286,567.537879 L340.892857,567.537879 L340.892857,567.537879 Z M342.857143,567.537879 L344.464286,567.537879 L344.464286,569.142808 L342.857143,569.142808 L342.857143,567.537879 L342.857143,567.537879 Z M344.464286,567.181228 L342.857143,567.181228 L342.857143,565.576299 L344.464286,565.576299 L344.464286,567.181228 L344.464286,567.181228 Z M344.464286,565.397973 L342.857143,565.397973 L342.857143,563.793044 L344.464286,563.793044 L344.464286,565.397973 L344.464286,565.397973 Z M344.464286,563.436393 L342.857143,563.436393 L342.857143,561.831464 L344.464286,561.831464 L344.464286,563.436393 L344.464286,563.436393 Z M344.464286,561.653139 L342.857143,561.653139 L342.857143,560.048209 L344.464286,560.048209 L344.464286,561.653139 L344.464286,561.653139 Z M344.464286,559.869884 L342.857143,559.869884 L342.857143,558.086629 L344.464286,558.086629 L344.464286,559.869884 L344.464286,559.869884 Z M339.642857,569.142808 L339.642857,567.537879 L337.678571,567.537879 L337.678571,569.142808 L339.642857,569.142808 L339.642857,569.142808 Z M336.785714,567.537879 L335.178571,567.537879 L335.178571,569.142808 L336.785714,569.142808 L336.785714,567.537879 L336.785714,567.537879 Z M335.178571,567.181228 L336.785714,567.181228 L336.785714,565.576299 L335.178571,565.576299 L335.178571,567.181228 L335.178571,567.181228 Z M337.678571,567.181228 L339.642857,567.181228 L339.642857,565.576299 L337.678571,565.576299 L337.678571,567.181228 L337.678571,567.181228 Z M335.178571,565.397973 L336.785714,565.397973 L336.785714,563.793044 L335.178571,563.793044 L335.178571,565.397973 L335.178571,565.397973 Z M337.678571,565.397973 L339.642857,565.397973 L339.642857,563.793044 L337.678571,563.793044 L337.678571,565.397973 L337.678571,565.397973 Z M335.178571,563.436393 L336.785714,563.436393 L336.785714,561.831464 L335.178571,561.831464 L335.178571,563.436393 L335.178571,563.436393 Z M337.678571,563.436393 L339.642857,563.436393 L339.642857,561.831464 L337.678571,561.831464 L337.678571,563.436393 L337.678571,563.436393 Z M335.178571,561.653139 L336.785714,561.653139 L336.785714,560.048209 L335.178571,560.048209 L335.178571,561.653139 L335.178571,561.653139 Z M337.678571,561.653139 L339.642857,561.653139 L339.642857,560.048209 L337.678571,560.048209 L337.678571,561.653139 L337.678571,561.653139 Z M335.178571,559.869884 L336.785714,559.869884 L336.785714,558.086629 L335.178571,558.086629 L335.178571,559.869884 L335.178571,559.869884 Z M337.678571,559.869884 L339.642857,559.869884 L339.642857,558.086629 L337.678571,558.086629 L337.678571,559.869884 L337.678571,559.869884 Z M284.821429,575.027548 L285.892857,575.027548 L290.178571,575.027548 L290.178571,588.401958 L285.892857,588.401958 L284.821429,588.401958 L277.321429,588.401958 L277.321429,575.027548 L284.821429,575.027548 L284.821429,575.027548 Z M316.071429,575.027548 L317.142857,575.027548 L324.642857,575.027548 L324.642857,588.401958 L317.142857,588.401958 L316.071429,588.401958 L311.785714,588.401958 L311.785714,575.027548 L316.071429,575.027548 L316.071429,575.027548 Z M297.5,534.012692 L296.428571,534.012692 L293.392857,534.012692 L292.321429,534.012692 L290.357143,534.012692 L290.178571,534.012692 L288.214286,534.012692 L287.857143,534.012692 L285.892857,534.012692 L284.821429,534.012692 L281.964286,534.012692 L280.892857,534.012692 C280.892857,531.694461 280.892857,535.082645 280.892857,532.942739 L280.892857,531.33781 L280.892857,530.981159 L280.892857,529.37623 L280.892857,529.019579 L280.892857,527.41465 L280.892857,526.879673 L280,526.879673 L280,526.344697 L280.892857,526.344697 L281.964286,526.344697 L284.821429,526.344697 L285.892857,526.344697 L287.857143,526.344697 L288.214286,526.344697 L290.178571,526.344697 L290.357143,526.344697 L292.321429,526.344697 L293.392857,526.344697 L296.428571,526.344697 L297.5,526.344697 L298.392857,526.344697 L298.392857,526.879673 L297.5,526.879673 L297.5,527.41465 L297.5,529.019579 L297.5,529.37623 L297.5,530.981159 L297.5,531.33781 L297.5,532.942739 C297.5,535.082645 297.5,531.694461 297.5,534.012692 L297.5,534.012692 Z M321.071429,567.537879 L321.071429,568.607832 L320,568.607832 L317.142857,568.607832 L315.892857,568.607832 L313.928571,568.607832 L313.75,568.607832 L311.785714,568.607832 L311.428571,568.607832 L309.464286,568.607832 L308.392857,568.607832 L305.535714,568.607832 L304.464286,568.607832 L304.464286,567.537879 L304.464286,565.93295 L304.464286,565.576299 L304.464286,563.97137 L304.464286,563.614719 L304.464286,562.009789 L304.464286,561.831464 L304.464286,560.226535 L304.464286,559.869884 L304.464286,558.264955 L304.464286,558.086629 L304.464286,556.303375 L304.464286,555.768398 L303.571429,555.768398 L303.571429,555.233422 L304.464286,555.233422 L305.535714,555.233422 L308.392857,555.233422 L309.464286,555.233422 L311.428571,555.233422 L311.785714,555.233422 L313.75,555.233422 L313.928571,555.233422 L315.892857,555.233422 L317.142857,555.233422 L320,555.233422 L321.071429,555.233422 L321.964286,555.233422 L321.964286,555.768398 L321.071429,555.768398 L321.071429,556.303375 L321.071429,558.086629 L321.071429,558.264955 L321.071429,559.869884 L321.071429,560.226535 L321.071429,561.831464 L321.071429,562.009789 L321.071429,563.614719 L321.071429,563.97137 L321.071429,565.576299 L321.071429,565.93295 L321.071429,567.537879 L321.071429,567.537879 Z M313.928571,556.303375 L313.928571,556.303375 L313.928571,558.086629 L315.892857,558.086629 L315.892857,556.303375 L315.892857,556.303375 L313.928571,556.303375 L313.928571,556.303375 Z M317.142857,558.086629 L320,558.086629 L320,556.303375 L320,556.303375 L317.142857,556.303375 L317.142857,556.303375 L317.142857,558.086629 L317.142857,558.086629 Z M320,558.264955 L317.142857,558.264955 L317.142857,559.869884 L320,559.869884 L320,558.264955 L320,558.264955 Z M315.892857,558.264955 L313.928571,558.264955 L313.928571,559.869884 L315.892857,559.869884 L315.892857,558.264955 L315.892857,558.264955 Z M320,560.226535 L317.142857,560.226535 L317.142857,561.831464 L320,561.831464 L320,560.226535 L320,560.226535 Z M315.892857,560.226535 L313.928571,560.226535 L313.928571,561.831464 L315.892857,561.831464 L315.892857,560.226535 L315.892857,560.226535 Z M320,562.009789 L317.142857,562.009789 L317.142857,563.614719 L320,563.614719 L320,562.009789 L320,562.009789 Z M315.892857,562.009789 L313.928571,562.009789 L313.928571,563.614719 L315.892857,563.614719 L315.892857,562.009789 L315.892857,562.009789 Z M320,563.97137 L317.142857,563.97137 L317.142857,565.576299 L320,565.576299 L320,563.97137 L320,563.97137 Z M315.892857,563.97137 L313.928571,563.97137 L313.928571,565.576299 L315.892857,565.576299 L315.892857,563.97137 L315.892857,563.97137 Z M320,565.93295 L317.142857,565.93295 L317.142857,567.537879 L320,567.537879 L320,565.93295 L320,565.93295 Z M315.892857,565.93295 L313.928571,565.93295 L313.928571,567.537879 L315.892857,567.537879 L315.892857,565.93295 L315.892857,565.93295 Z M313.75,567.537879 L313.75,565.93295 L311.785714,565.93295 L311.785714,567.537879 L313.75,567.537879 L313.75,567.537879 Z M311.428571,567.537879 L311.428571,565.93295 L309.464286,565.93295 L309.464286,567.537879 L311.428571,567.537879 L311.428571,567.537879 Z M308.392857,565.93295 L305.535714,565.93295 L305.535714,567.537879 L308.392857,567.537879 L308.392857,565.93295 L308.392857,565.93295 Z M305.535714,565.576299 L308.392857,565.576299 L308.392857,563.97137 L305.535714,563.97137 L305.535714,565.576299 L305.535714,565.576299 Z M309.464286,565.576299 L311.428571,565.576299 L311.428571,563.97137 L309.464286,563.97137 L309.464286,565.576299 L309.464286,565.576299 Z M305.535714,563.614719 L308.392857,563.614719 L308.392857,562.009789 L305.535714,562.009789 L305.535714,563.614719 L305.535714,563.614719 Z M309.464286,563.614719 L311.428571,563.614719 L311.428571,562.009789 L309.464286,562.009789 L309.464286,563.614719 L309.464286,563.614719 Z M305.535714,561.831464 L308.392857,561.831464 L308.392857,560.226535 L305.535714,560.226535 L305.535714,561.831464 L305.535714,561.831464 Z M309.464286,561.831464 L311.428571,561.831464 L311.428571,560.226535 L309.464286,560.226535 L309.464286,561.831464 L309.464286,561.831464 Z M305.535714,559.869884 L308.392857,559.869884 L308.392857,558.264955 L305.535714,558.264955 L305.535714,559.869884 L305.535714,559.869884 Z M309.464286,559.869884 L311.428571,559.869884 L311.428571,558.264955 L309.464286,558.264955 L309.464286,559.869884 L309.464286,559.869884 Z M305.535714,558.086629 L308.392857,558.086629 L308.392857,556.303375 L308.392857,556.303375 L305.535714,556.303375 L305.535714,556.303375 L305.535714,558.086629 L305.535714,558.086629 Z M309.464286,558.086629 L311.428571,558.086629 L311.428571,556.303375 L311.428571,556.303375 L309.464286,556.303375 L309.464286,556.303375 L309.464286,558.086629 L309.464286,558.086629 Z M311.785714,556.303375 L311.785714,556.303375 L311.785714,558.086629 L313.75,558.086629 L313.75,556.303375 L313.75,556.303375 L311.785714,556.303375 L311.785714,556.303375 Z M313.75,565.576299 L313.75,563.97137 L311.785714,563.97137 L311.785714,565.576299 L313.75,565.576299 L313.75,565.576299 Z M313.75,563.614719 L313.75,562.009789 L311.785714,562.009789 L311.785714,563.614719 L313.75,563.614719 L313.75,563.614719 Z M313.75,560.226535 L311.785714,560.226535 L311.785714,561.831464 L313.75,561.831464 L313.75,560.226535 L313.75,560.226535 Z M311.785714,559.869884 L313.75,559.869884 L313.75,558.264955 L311.785714,558.264955 L311.785714,559.869884 L311.785714,559.869884 Z M297.5,567.537879 L297.5,568.607832 L296.428571,568.607832 L293.392857,568.607832 L292.321429,568.607832 L290.357143,568.607832 L290.178571,568.607832 L288.214286,568.607832 L287.857143,568.607832 L285.892857,568.607832 L284.821429,568.607832 L281.964286,568.607832 L280.892857,568.607832 L280.892857,567.537879 L280.892857,565.93295 L280.892857,565.576299 L280.892857,563.97137 L280.892857,563.614719 L280.892857,562.009789 L280.892857,561.831464 L280.892857,560.226535 L280.892857,559.869884 L280.892857,558.264955 L280.892857,558.086629 L280.892857,556.303375 L280.892857,555.768398 L280,555.768398 L280,555.233422 L280.892857,555.233422 L281.964286,555.233422 L284.821429,555.233422 L285.892857,555.233422 L287.857143,555.233422 L288.214286,555.233422 L290.178571,555.233422 L290.357143,555.233422 L292.321429,555.233422 L293.392857,555.233422 L296.428571,555.233422 L297.5,555.233422 L298.392857,555.233422 L298.392857,555.768398 L297.5,555.768398 L297.5,556.303375 L297.5,558.086629 L297.5,558.264955 L297.5,559.869884 L297.5,560.226535 L297.5,561.831464 L297.5,562.009789 L297.5,563.614719 L297.5,563.97137 L297.5,565.576299 L297.5,565.93295 L297.5,567.537879 L297.5,567.537879 Z M290.357143,556.303375 L290.357143,556.303375 L290.357143,558.086629 L292.321429,558.086629 L292.321429,556.303375 L292.321429,556.303375 L290.357143,556.303375 L290.357143,556.303375 Z M293.392857,558.086629 L296.428571,558.086629 L296.428571,556.303375 L296.428571,556.303375 L293.392857,556.303375 L293.392857,556.303375 L293.392857,558.086629 L293.392857,558.086629 Z M296.428571,558.264955 L293.392857,558.264955 L293.392857,559.869884 L296.428571,559.869884 L296.428571,558.264955 L296.428571,558.264955 Z M292.321429,558.264955 L290.357143,558.264955 L290.357143,559.869884 L292.321429,559.869884 L292.321429,558.264955 L292.321429,558.264955 Z M296.428571,560.226535 L293.392857,560.226535 L293.392857,561.831464 L296.428571,561.831464 L296.428571,560.226535 L296.428571,560.226535 Z M292.321429,560.226535 L290.357143,560.226535 L290.357143,561.831464 L292.321429,561.831464 L292.321429,560.226535 L292.321429,560.226535 Z M296.428571,562.009789 L293.392857,562.009789 L293.392857,563.614719 L296.428571,563.614719 L296.428571,562.009789 L296.428571,562.009789 Z M292.321429,562.009789 L290.357143,562.009789 L290.357143,563.614719 L292.321429,563.614719 L292.321429,562.009789 L292.321429,562.009789 Z M296.428571,563.97137 L293.392857,563.97137 L293.392857,565.576299 L296.428571,565.576299 L296.428571,563.97137 L296.428571,563.97137 Z M292.321429,563.97137 L290.357143,563.97137 L290.357143,565.576299 L292.321429,565.576299 L292.321429,563.97137 L292.321429,563.97137 Z M296.428571,565.93295 L293.392857,565.93295 L293.392857,567.537879 L296.428571,567.537879 L296.428571,565.93295 L296.428571,565.93295 Z M292.321429,565.93295 L290.357143,565.93295 L290.357143,567.537879 L292.321429,567.537879 L292.321429,565.93295 L292.321429,565.93295 Z M290.178571,567.537879 L290.178571,565.93295 L288.214286,565.93295 L288.214286,567.537879 L290.178571,567.537879 L290.178571,567.537879 Z M287.857143,567.537879 L287.857143,565.93295 L285.892857,565.93295 L285.892857,567.537879 L287.857143,567.537879 L287.857143,567.537879 Z M284.821429,565.93295 L281.964286,565.93295 L281.964286,567.537879 L284.821429,567.537879 L284.821429,565.93295 L284.821429,565.93295 Z M281.964286,565.576299 L284.821429,565.576299 L284.821429,563.97137 L281.964286,563.97137 L281.964286,565.576299 L281.964286,565.576299 Z M285.892857,565.576299 L287.857143,565.576299 L287.857143,563.97137 L285.892857,563.97137 L285.892857,565.576299 L285.892857,565.576299 Z M281.964286,563.614719 L284.821429,563.614719 L284.821429,562.009789 L281.964286,562.009789 L281.964286,563.614719 L281.964286,563.614719 Z M285.892857,563.614719 L287.857143,563.614719 L287.857143,562.009789 L285.892857,562.009789 L285.892857,563.614719 L285.892857,563.614719 Z M281.964286,561.831464 L284.821429,561.831464 L284.821429,560.226535 L281.964286,560.226535 L281.964286,561.831464 L281.964286,561.831464 Z M285.892857,561.831464 L287.857143,561.831464 L287.857143,560.226535 L285.892857,560.226535 L285.892857,561.831464 L285.892857,561.831464 Z M281.964286,559.869884 L284.821429,559.869884 L284.821429,558.264955 L281.964286,558.264955 L281.964286,559.869884 L281.964286,559.869884 Z M285.892857,559.869884 L287.857143,559.869884 L287.857143,558.264955 L285.892857,558.264955 L285.892857,559.869884 L285.892857,559.869884 Z M281.964286,558.086629 L284.821429,558.086629 L284.821429,556.303375 L284.821429,556.303375 L281.964286,556.303375 L281.964286,556.303375 L281.964286,558.086629 L281.964286,558.086629 Z M285.892857,558.086629 L287.857143,558.086629 L287.857143,556.303375 L287.857143,556.303375 L285.892857,556.303375 L285.892857,556.303375 L285.892857,558.086629 L285.892857,558.086629 Z M288.214286,556.303375 L288.214286,556.303375 L288.214286,558.086629 L290.178571,558.086629 L290.178571,556.303375 L290.178571,556.303375 L288.214286,556.303375 L288.214286,556.303375 Z M290.178571,565.576299 L290.178571,563.97137 L288.214286,563.97137 L288.214286,565.576299 L290.178571,565.576299 L290.178571,565.576299 Z M290.178571,563.614719 L290.178571,562.009789 L288.214286,562.009789 L288.214286,563.614719 L290.178571,563.614719 L290.178571,563.614719 Z M290.178571,560.226535 L288.214286,560.226535 L288.214286,561.831464 L290.178571,561.831464 L290.178571,560.226535 L290.178571,560.226535 Z M288.214286,559.869884 L290.178571,559.869884 L290.178571,558.264955 L288.214286,558.264955 L288.214286,559.869884 L288.214286,559.869884 Z M321.071429,550.240309 L321.071429,551.310262 L320,551.310262 L317.142857,551.310262 L315.892857,551.310262 L313.928571,551.310262 L313.75,551.310262 L311.785714,551.310262 L311.428571,551.310262 L309.464286,551.310262 L308.392857,551.310262 L305.535714,551.310262 L304.464286,551.310262 L304.464286,550.240309 L304.464286,548.457054 L304.464286,548.278729 L304.464286,546.6738 L304.464286,546.317149 L304.464286,544.71222 L304.464286,544.533894 L304.464286,542.928965 L304.464286,542.572314 L304.464286,540.967385 L304.464286,540.789059 L304.464286,539.005805 L304.464286,538.470828 L303.571429,538.470828 L303.571429,537.935852 L304.464286,537.935852 L305.535714,537.935852 L308.392857,537.935852 L309.464286,537.935852 L311.428571,537.935852 L311.785714,537.935852 L313.75,537.935852 L313.928571,537.935852 L315.892857,537.935852 L317.142857,537.935852 L320,537.935852 L321.071429,537.935852 L321.964286,537.935852 L321.964286,538.470828 L321.071429,538.470828 L321.071429,539.005805 L321.071429,540.789059 L321.071429,540.967385 L321.071429,542.572314 L321.071429,542.928965 L321.071429,544.533894 L321.071429,544.71222 L321.071429,546.317149 L321.071429,546.6738 L321.071429,548.278729 L321.071429,548.457054 L321.071429,550.240309 L321.071429,550.240309 Z M313.928571,539.005805 L313.928571,540.789059 L315.892857,540.789059 L315.892857,539.005805 L313.928571,539.005805 L313.928571,539.005805 Z M317.142857,540.789059 L320,540.789059 L320,539.005805 L317.142857,539.005805 L317.142857,540.789059 L317.142857,540.789059 Z M320,540.967385 L317.142857,540.967385 L317.142857,542.572314 L320,542.572314 L320,540.967385 L320,540.967385 Z M315.892857,540.967385 L313.928571,540.967385 L313.928571,542.572314 L315.892857,542.572314 L315.892857,540.967385 L315.892857,540.967385 Z M320,542.928965 L317.142857,542.928965 L317.142857,544.533894 L320,544.533894 L320,542.928965 L320,542.928965 Z M315.892857,542.928965 L313.928571,542.928965 L313.928571,544.533894 L315.892857,544.533894 L315.892857,542.928965 L315.892857,542.928965 Z M320,544.71222 L317.142857,544.71222 L317.142857,546.317149 L320,546.317149 L320,544.71222 L320,544.71222 Z M315.892857,544.71222 L313.928571,544.71222 L313.928571,546.317149 L315.892857,546.317149 L315.892857,544.71222 L315.892857,544.71222 Z M320,546.6738 L317.142857,546.6738 L317.142857,548.278729 L320,548.278729 L320,546.6738 L320,546.6738 Z M315.892857,546.6738 L313.928571,546.6738 L313.928571,548.278729 L315.892857,548.278729 L315.892857,546.6738 L315.892857,546.6738 Z M320,548.457054 L317.142857,548.457054 L317.142857,550.240309 L320,550.240309 L320,548.457054 L320,548.457054 Z M315.892857,548.457054 L313.928571,548.457054 L313.928571,550.240309 L315.892857,550.240309 L315.892857,548.457054 L315.892857,548.457054 Z M313.75,550.240309 L313.75,548.457054 L311.785714,548.457054 L311.785714,550.240309 L313.75,550.240309 L313.75,550.240309 Z M311.428571,550.240309 L311.428571,548.457054 L309.464286,548.457054 L309.464286,550.240309 L311.428571,550.240309 L311.428571,550.240309 Z M308.392857,548.457054 L305.535714,548.457054 L305.535714,550.240309 L308.392857,550.240309 L308.392857,548.457054 L308.392857,548.457054 Z M305.535714,548.278729 L308.392857,548.278729 L308.392857,546.6738 L305.535714,546.6738 L305.535714,548.278729 L305.535714,548.278729 Z M309.464286,548.278729 L311.428571,548.278729 L311.428571,546.6738 L309.464286,546.6738 L309.464286,548.278729 L309.464286,548.278729 Z M305.535714,546.317149 L308.392857,546.317149 L308.392857,544.71222 L305.535714,544.71222 L305.535714,546.317149 L305.535714,546.317149 Z M309.464286,546.317149 L311.428571,546.317149 L311.428571,544.71222 L309.464286,544.71222 L309.464286,546.317149 L309.464286,546.317149 Z M305.535714,544.533894 L308.392857,544.533894 L308.392857,542.928965 L305.535714,542.928965 L305.535714,544.533894 L305.535714,544.533894 Z M309.464286,544.533894 L311.428571,544.533894 L311.428571,542.928965 L309.464286,542.928965 L309.464286,544.533894 L309.464286,544.533894 Z M305.535714,542.572314 L308.392857,542.572314 L308.392857,540.967385 L305.535714,540.967385 L305.535714,542.572314 L305.535714,542.572314 Z M309.464286,542.572314 L311.428571,542.572314 L311.428571,540.967385 L309.464286,540.967385 L309.464286,542.572314 L309.464286,542.572314 Z M305.535714,540.789059 L308.392857,540.789059 L308.392857,539.005805 L305.535714,539.005805 L305.535714,540.789059 L305.535714,540.789059 Z M309.464286,540.789059 L311.428571,540.789059 L311.428571,539.005805 L309.464286,539.005805 L309.464286,540.789059 L309.464286,540.789059 Z M311.785714,539.005805 L311.785714,540.789059 L313.75,540.789059 L313.75,539.005805 L311.785714,539.005805 L311.785714,539.005805 Z M313.75,548.278729 L313.75,546.6738 L311.785714,546.6738 L311.785714,548.278729 L313.75,548.278729 L313.75,548.278729 Z M313.75,546.317149 L313.75,544.71222 L311.785714,544.71222 L311.785714,546.317149 L313.75,546.317149 L313.75,546.317149 Z M313.75,542.928965 L311.785714,542.928965 L311.785714,544.533894 L313.75,544.533894 L313.75,542.928965 L313.75,542.928965 Z M311.785714,542.572314 L313.75,542.572314 L313.75,540.967385 L311.785714,540.967385 L311.785714,542.572314 L311.785714,542.572314 Z M297.5,550.240309 L297.5,551.310262 L296.428571,551.310262 L293.392857,551.310262 L292.321429,551.310262 L290.357143,551.310262 L290.178571,551.310262 L288.214286,551.310262 L287.857143,551.310262 L285.892857,551.310262 L284.821429,551.310262 L281.964286,551.310262 L280.892857,551.310262 L280.892857,550.240309 L280.892857,548.457054 L280.892857,548.278729 L280.892857,546.6738 L280.892857,546.317149 L280.892857,544.71222 L280.892857,544.533894 L280.892857,542.928965 L280.892857,542.572314 L280.892857,540.967385 L280.892857,540.789059 L280.892857,539.005805 L280.892857,538.470828 L280,538.470828 L280,537.935852 L280.892857,537.935852 L281.964286,537.935852 L284.821429,537.935852 L285.892857,537.935852 L287.857143,537.935852 L288.214286,537.935852 L290.178571,537.935852 L290.357143,537.935852 L292.321429,537.935852 L293.392857,537.935852 L296.428571,537.935852 L297.5,537.935852 L298.392857,537.935852 L298.392857,538.470828 L297.5,538.470828 L297.5,539.005805 L297.5,540.789059 L297.5,540.967385 L297.5,542.572314 L297.5,542.928965 L297.5,544.533894 L297.5,544.71222 L297.5,546.317149 L297.5,546.6738 L297.5,548.278729 L297.5,548.457054 L297.5,550.240309 L297.5,550.240309 Z M290.357143,539.005805 L290.357143,540.789059 L292.321429,540.789059 L292.321429,539.005805 L290.357143,539.005805 L290.357143,539.005805 Z M293.392857,540.789059 L296.428571,540.789059 L296.428571,539.005805 L293.392857,539.005805 L293.392857,540.789059 L293.392857,540.789059 Z M296.428571,540.967385 L293.392857,540.967385 L293.392857,542.572314 L296.428571,542.572314 L296.428571,540.967385 L296.428571,540.967385 Z M292.321429,540.967385 L290.357143,540.967385 L290.357143,542.572314 L292.321429,542.572314 L292.321429,540.967385 L292.321429,540.967385 Z M296.428571,542.928965 L293.392857,542.928965 L293.392857,544.533894 L296.428571,544.533894 L296.428571,542.928965 L296.428571,542.928965 Z M292.321429,542.928965 L290.357143,542.928965 L290.357143,544.533894 L292.321429,544.533894 L292.321429,542.928965 L292.321429,542.928965 Z M296.428571,544.71222 L293.392857,544.71222 L293.392857,546.317149 L296.428571,546.317149 L296.428571,544.71222 L296.428571,544.71222 Z M292.321429,544.71222 L290.357143,544.71222 L290.357143,546.317149 L292.321429,546.317149 L292.321429,544.71222 L292.321429,544.71222 Z M296.428571,546.6738 L293.392857,546.6738 L293.392857,548.278729 L296.428571,548.278729 L296.428571,546.6738 L296.428571,546.6738 Z M292.321429,546.6738 L290.357143,546.6738 L290.357143,548.278729 L292.321429,548.278729 L292.321429,546.6738 L292.321429,546.6738 Z M296.428571,548.457054 L293.392857,548.457054 L293.392857,550.240309 L296.428571,550.240309 L296.428571,548.457054 L296.428571,548.457054 Z M292.321429,548.457054 L290.357143,548.457054 L290.357143,550.240309 L292.321429,550.240309 L292.321429,548.457054 L292.321429,548.457054 Z M290.178571,550.240309 L290.178571,548.457054 L288.214286,548.457054 L288.214286,550.240309 L290.178571,550.240309 L290.178571,550.240309 Z M287.857143,550.240309 L287.857143,548.457054 L285.892857,548.457054 L285.892857,550.240309 L287.857143,550.240309 L287.857143,550.240309 Z M284.821429,548.457054 L281.964286,548.457054 L281.964286,550.240309 L284.821429,550.240309 L284.821429,548.457054 L284.821429,548.457054 Z M281.964286,548.278729 L284.821429,548.278729 L284.821429,546.6738 L281.964286,546.6738 L281.964286,548.278729 L281.964286,548.278729 Z M285.892857,548.278729 L287.857143,548.278729 L287.857143,546.6738 L285.892857,546.6738 L285.892857,548.278729 L285.892857,548.278729 Z M281.964286,546.317149 L284.821429,546.317149 L284.821429,544.71222 L281.964286,544.71222 L281.964286,546.317149 L281.964286,546.317149 Z M285.892857,546.317149 L287.857143,546.317149 L287.857143,544.71222 L285.892857,544.71222 L285.892857,546.317149 L285.892857,546.317149 Z M281.964286,544.533894 L284.821429,544.533894 L284.821429,542.928965 L281.964286,542.928965 L281.964286,544.533894 L281.964286,544.533894 Z M285.892857,544.533894 L287.857143,544.533894 L287.857143,542.928965 L285.892857,542.928965 L285.892857,544.533894 L285.892857,544.533894 Z M281.964286,542.572314 L284.821429,542.572314 L284.821429,540.967385 L281.964286,540.967385 L281.964286,542.572314 L281.964286,542.572314 Z M285.892857,542.572314 L287.857143,542.572314 L287.857143,540.967385 L285.892857,540.967385 L285.892857,542.572314 L285.892857,542.572314 Z M281.964286,540.789059 L284.821429,540.789059 L284.821429,539.005805 L281.964286,539.005805 L281.964286,540.789059 L281.964286,540.789059 Z M285.892857,540.789059 L287.857143,540.789059 L287.857143,539.005805 L285.892857,539.005805 L285.892857,540.789059 L285.892857,540.789059 Z M288.214286,539.005805 L288.214286,540.789059 L290.178571,540.789059 L290.178571,539.005805 L288.214286,539.005805 L288.214286,539.005805 Z M290.178571,548.278729 L290.178571,546.6738 L288.214286,546.6738 L288.214286,548.278729 L290.178571,548.278729 L290.178571,548.278729 Z M290.178571,546.317149 L290.178571,544.71222 L288.214286,544.71222 L288.214286,546.317149 L290.178571,546.317149 L290.178571,546.317149 Z M290.178571,542.928965 L288.214286,542.928965 L288.214286,544.533894 L290.178571,544.533894 L290.178571,542.928965 L290.178571,542.928965 Z M288.214286,542.572314 L290.178571,542.572314 L290.178571,540.967385 L288.214286,540.967385 L288.214286,542.572314 L288.214286,542.572314 Z M321.071429,534.012692 L320,534.012692 L317.142857,534.012692 L315.892857,534.012692 L313.928571,534.012692 L313.75,534.012692 L311.785714,534.012692 L311.428571,534.012692 L309.464286,534.012692 L308.392857,534.012692 L305.535714,534.012692 L304.464286,534.012692 C304.464286,531.694461 304.464286,535.082645 304.464286,532.942739 L304.464286,531.33781 L304.464286,530.981159 L304.464286,529.37623 L304.464286,529.019579 L304.464286,527.41465 L304.464286,526.879673 L303.571429,526.879673 L303.571429,526.344697 L304.464286,526.344697 L305.535714,526.344697 L308.392857,526.344697 L309.464286,526.344697 L311.428571,526.344697 L311.785714,526.344697 L313.75,526.344697 L313.928571,526.344697 L315.892857,526.344697 L317.142857,526.344697 L320,526.344697 L321.071429,526.344697 L321.964286,526.344697 L321.964286,526.879673 L321.071429,526.879673 L321.071429,527.41465 L321.071429,529.019579 L321.071429,529.37623 L321.071429,530.981159 L321.071429,531.33781 L321.071429,532.942739 C321.071429,535.082645 321.071429,531.694461 321.071429,534.012692 L321.071429,534.012692 Z M313.928571,527.41465 L313.928571,529.019579 L315.892857,529.019579 L315.892857,527.41465 L313.928571,527.41465 L313.928571,527.41465 Z M317.142857,529.019579 L320,529.019579 L320,527.41465 L317.142857,527.41465 L317.142857,529.019579 L317.142857,529.019579 Z M320,529.37623 L317.142857,529.37623 L317.142857,530.981159 L320,530.981159 L320,529.37623 L320,529.37623 Z M315.892857,529.37623 L313.928571,529.37623 L313.928571,530.981159 L315.892857,530.981159 L315.892857,529.37623 L315.892857,529.37623 Z M320,531.33781 L317.142857,531.33781 L317.142857,532.942739 L320,532.942739 L320,531.33781 L320,531.33781 Z M315.892857,531.33781 L313.928571,531.33781 L313.928571,532.942739 L315.892857,532.942739 L315.892857,531.33781 L315.892857,531.33781 Z M305.535714,532.942739 L308.392857,532.942739 L308.392857,531.33781 L305.535714,531.33781 L305.535714,532.942739 L305.535714,532.942739 Z M309.464286,532.942739 L311.428571,532.942739 L311.428571,531.33781 L309.464286,531.33781 L309.464286,532.942739 L309.464286,532.942739 Z M305.535714,530.981159 L308.392857,530.981159 L308.392857,529.37623 L305.535714,529.37623 L305.535714,530.981159 L305.535714,530.981159 Z M309.464286,530.981159 L311.428571,530.981159 L311.428571,529.37623 L309.464286,529.37623 L309.464286,530.981159 L309.464286,530.981159 Z M305.535714,529.019579 L308.392857,529.019579 L308.392857,527.41465 L305.535714,527.41465 L305.535714,529.019579 L305.535714,529.019579 Z M309.464286,529.019579 L311.428571,529.019579 L311.428571,527.41465 L309.464286,527.41465 L309.464286,529.019579 L309.464286,529.019579 Z M311.785714,527.41465 L311.785714,529.019579 L313.75,529.019579 L313.75,527.41465 L311.785714,527.41465 L311.785714,527.41465 Z M313.75,531.33781 L311.785714,531.33781 L311.785714,532.942739 L313.75,532.942739 L313.75,531.33781 L313.75,531.33781 Z M311.785714,530.981159 L313.75,530.981159 L313.75,529.37623 L311.785714,529.37623 L311.785714,530.981159 L311.785714,530.981159 Z M290.357143,527.41465 L290.357143,529.019579 L292.321429,529.019579 L292.321429,527.41465 L290.357143,527.41465 L290.357143,527.41465 Z M293.392857,529.019579 L296.428571,529.019579 L296.428571,527.41465 L293.392857,527.41465 L293.392857,529.019579 L293.392857,529.019579 Z M296.428571,529.37623 L293.392857,529.37623 L293.392857,530.981159 L296.428571,530.981159 L296.428571,529.37623 L296.428571,529.37623 Z M292.321429,529.37623 L290.357143,529.37623 L290.357143,530.981159 L292.321429,530.981159 L292.321429,529.37623 L292.321429,529.37623 Z M296.428571,531.33781 L293.392857,531.33781 L293.392857,532.942739 L296.428571,532.942739 L296.428571,531.33781 L296.428571,531.33781 Z M292.321429,531.33781 L290.357143,531.33781 L290.357143,532.942739 L292.321429,532.942739 L292.321429,531.33781 L292.321429,531.33781 Z M281.964286,532.942739 L284.821429,532.942739 L284.821429,531.33781 L281.964286,531.33781 L281.964286,532.942739 L281.964286,532.942739 Z M285.892857,532.942739 L287.857143,532.942739 L287.857143,531.33781 L285.892857,531.33781 L285.892857,532.942739 L285.892857,532.942739 Z M281.964286,530.981159 L284.821429,530.981159 L284.821429,529.37623 L281.964286,529.37623 L281.964286,530.981159 L281.964286,530.981159 Z M285.892857,530.981159 L287.857143,530.981159 L287.857143,529.37623 L285.892857,529.37623 L285.892857,530.981159 L285.892857,530.981159 Z M281.964286,529.019579 L284.821429,529.019579 L284.821429,527.41465 L281.964286,527.41465 L281.964286,529.019579 L281.964286,529.019579 Z M285.892857,529.019579 L287.857143,529.019579 L287.857143,527.41465 L285.892857,527.41465 L285.892857,529.019579 L285.892857,529.019579 Z M288.214286,527.41465 L288.214286,529.019579 L290.178571,529.019579 L290.178571,527.41465 L288.214286,527.41465 L288.214286,527.41465 Z M290.178571,531.33781 L288.214286,531.33781 L288.214286,532.942739 L290.178571,532.942739 L290.178571,531.33781 L290.178571,531.33781 Z M288.214286,530.981159 L290.178571,530.981159 L290.178571,529.37623 L288.214286,529.37623 L288.214286,530.981159 L288.214286,530.981159 Z M301.428571,453.052932 L301.428571,453.052932 C297.142857,453.052932 293.75,453.766234 293.75,454.657861 C293.75,455.549488 297.142857,456.084465 301.428571,456.084465 L302.5,456.084465 C303.035714,457.689394 306.428571,458.759347 310.535714,458.759347 C314.107143,458.759347 316.964286,458.046045 318.214286,456.976092 L321.25,456.976092 C326.071429,456.976092 329.821429,456.084465 329.821429,454.836187 C329.821429,453.944559 327.857143,453.231257 325.178571,452.874606 C324.642857,450.556375 322.678571,448.773121 320.178571,448.773121 L319.821429,448.773121 C318.75,445.919913 316.071429,443.958333 313.035714,443.958333 C309.642857,443.958333 306.785714,446.276564 306.071429,449.486423 C305.892857,449.308097 305.535714,449.308097 305.357143,449.308097 C303.214286,449.308097 301.607143,450.913026 301.428571,453.052932 L301.428571,453.052932 Z M369.464286,468.388922 L369.642857,468.388922 L370,468.388922 L370,474.273662 L369.642857,474.273662 C368.928571,474.273662 368.214286,474.273662 367.5,474.095336 C366.428571,476.948544 360.357143,479.088449 352.857143,479.088449 C346.607143,479.088449 341.428571,477.48352 339.107143,475.52194 C337.321429,475.700266 335.535714,475.700266 333.571429,475.700266 C325,475.700266 318.035714,474.095336 318.035714,471.777105 C318.035714,470.350502 321.428571,468.923898 326.428571,468.388922 C327.321429,463.930785 331.071429,460.720927 335.535714,460.720927 L336.25,460.720927 C338.035714,455.727814 342.857143,451.982979 348.571429,451.982979 C354.642857,451.982979 359.821429,456.26279 361.071429,461.969205 C361.428571,461.969205 361.964286,461.79088 362.321429,461.79088 C366.071429,461.79088 369.285714,464.822412 369.464286,468.388922 L369.464286,468.388922 Z M28.9285714,468.388922 L29.1071429,468.388922 C36.6071429,468.388922 42.8571429,469.815525 42.8571429,471.242129 C42.8571429,472.847058 36.6071429,474.273662 29.1071429,474.273662 C28.3928571,474.273662 27.6785714,474.273662 26.9642857,474.095336 C25.8928571,476.948544 19.6428571,479.088449 12.3214286,479.088449 C6.07142857,479.088449 0.714285714,477.48352 -1.42857143,475.52194 C-2.5,475.700266 -3.75,475.700266 -5,475.700266 L-5,460.720927 L-4.28571429,460.720927 C-2.5,455.727814 2.32142857,451.982979 7.85714286,451.982979 C14.1071429,451.982979 19.1071429,456.26279 20.5357143,461.969205 C20.8928571,461.969205 21.4285714,461.79088 21.7857143,461.79088 C25.5357143,461.79088 28.5714286,464.822412 28.9285714,468.388922 L28.9285714,468.388922 Z M16.0714286,530.446183 L20.1785714,530.446183 L20.1785714,532.586088 L22.8571429,532.586088 L22.8571429,538.470828 L22.8571429,539.897432 L22.8571429,575.205874 L-5,575.205874 L-5,539.897432 L-5,538.470828 L-5,532.586088 L16.0714286,532.586088 L16.0714286,530.446183 L16.0714286,530.446183 Z M8.39285714,578.059081 L9.46428571,578.059081 L21.7857143,578.059081 L21.7857143,588.401958 L9.46428571,588.401958 L8.39285714,588.401958 L6.96428571,588.401958 L6.96428571,578.059081 L8.39285714,578.059081 L8.39285714,578.059081 Z M11.25,547.565427 L17.5,547.565427 L18.0357143,547.565427 L18.0357143,548.100403 L17.5,548.100403 L17.5,556.660026 L11.25,556.660026 L11.25,548.100403 L10.5357143,548.100403 L10.5357143,547.565427 L11.25,547.565427 L11.25,547.565427 Z M11.25,559.691558 L17.5,559.691558 L18.0357143,559.691558 L18.0357143,560.226535 L17.5,560.226535 L17.5,568.786157 L11.25,568.786157 L11.25,560.226535 L10.5357143,560.226535 L10.5357143,559.691558 L11.25,559.691558 L11.25,559.691558 Z M12.1428571,560.761511 L13.3928571,560.761511 L13.3928571,562.544766 L12.1428571,562.544766 L12.1428571,560.761511 L12.1428571,560.761511 Z M13.75,560.761511 L15,560.761511 L15,562.544766 L13.75,562.544766 L13.75,560.761511 L13.75,560.761511 Z M15.3571429,560.761511 L16.4285714,560.761511 L16.4285714,562.544766 L15.3571429,562.544766 L15.3571429,560.761511 L15.3571429,560.761511 Z M16.4285714,562.901417 L16.4285714,565.041322 L15.3571429,565.041322 L15.3571429,562.901417 L16.4285714,562.901417 L16.4285714,562.901417 Z M15,565.041322 L13.75,565.041322 L13.75,562.901417 L15,562.901417 L15,565.041322 L15,565.041322 Z M13.3928571,565.041322 L12.1428571,565.041322 L12.1428571,562.901417 L13.3928571,562.901417 L13.3928571,565.041322 L13.3928571,565.041322 Z M16.4285714,565.219648 L16.4285714,567.716204 L12.1428571,567.716204 L12.1428571,565.219648 L16.4285714,565.219648 L16.4285714,565.219648 Z M0.357142857,559.691558 L6.78571429,559.691558 L7.32142857,559.691558 L7.32142857,560.226535 L6.78571429,560.226535 L6.78571429,568.786157 L0.357142857,568.786157 L0.357142857,560.226535 L-0.178571429,560.226535 L-0.178571429,559.691558 L0.357142857,559.691558 L0.357142857,559.691558 Z M1.42857143,560.761511 L2.67857143,560.761511 L2.67857143,562.544766 L1.42857143,562.544766 L1.42857143,560.761511 L1.42857143,560.761511 Z M2.85714286,560.761511 L4.28571429,560.761511 L4.28571429,562.544766 L2.85714286,562.544766 L2.85714286,560.761511 L2.85714286,560.761511 Z M4.46428571,560.761511 L5.71428571,560.761511 L5.71428571,562.544766 L4.46428571,562.544766 L4.46428571,560.761511 L4.46428571,560.761511 Z M5.71428571,562.901417 L5.71428571,565.041322 L4.46428571,565.041322 L4.46428571,562.901417 L5.71428571,562.901417 L5.71428571,562.901417 Z M4.28571429,565.041322 L2.85714286,565.041322 L2.85714286,562.901417 L4.28571429,562.901417 L4.28571429,565.041322 L4.28571429,565.041322 Z M2.67857143,565.041322 L1.42857143,565.041322 L1.42857143,562.901417 L2.67857143,562.901417 L2.67857143,565.041322 L2.67857143,565.041322 Z M5.71428571,565.219648 L5.71428571,567.716204 L1.42857143,567.716204 L1.42857143,565.219648 L5.71428571,565.219648 L5.71428571,565.219648 Z M0.357142857,547.565427 L6.78571429,547.565427 L7.32142857,547.565427 L7.32142857,548.100403 L6.78571429,548.100403 L6.78571429,556.660026 L0.357142857,556.660026 L0.357142857,548.100403 L-0.178571429,548.100403 L-0.178571429,547.565427 L0.357142857,547.565427 L0.357142857,547.565427 Z M1.42857143,548.63538 L2.67857143,548.63538 L2.67857143,550.418634 L1.42857143,550.418634 L1.42857143,548.63538 L1.42857143,548.63538 Z M2.85714286,548.63538 L4.28571429,548.63538 L4.28571429,550.418634 L2.85714286,550.418634 L2.85714286,548.63538 L2.85714286,548.63538 Z M4.46428571,548.63538 L5.71428571,548.63538 L5.71428571,550.418634 L4.46428571,550.418634 L4.46428571,548.63538 L4.46428571,548.63538 Z M5.71428571,550.775285 L5.71428571,552.915191 L4.46428571,552.915191 L4.46428571,550.775285 L5.71428571,550.775285 L5.71428571,550.775285 Z M4.28571429,552.915191 L2.85714286,552.915191 L2.85714286,550.775285 L4.28571429,550.775285 L4.28571429,552.915191 L4.28571429,552.915191 Z M2.67857143,552.915191 L1.42857143,552.915191 L1.42857143,550.775285 L2.67857143,550.775285 L2.67857143,552.915191 L2.67857143,552.915191 Z M5.71428571,553.093516 L5.71428571,555.590073 L1.42857143,555.590073 L1.42857143,553.093516 L5.71428571,553.093516 L5.71428571,553.093516 Z M12.1428571,548.63538 L13.3928571,548.63538 L13.3928571,550.418634 L12.1428571,550.418634 L12.1428571,548.63538 L12.1428571,548.63538 Z M13.75,548.63538 L15,548.63538 L15,550.418634 L13.75,550.418634 L13.75,548.63538 L13.75,548.63538 Z M15.3571429,548.63538 L16.4285714,548.63538 L16.4285714,550.418634 L15.3571429,550.418634 L15.3571429,548.63538 L15.3571429,548.63538 Z M16.4285714,550.775285 L16.4285714,552.915191 L15.3571429,552.915191 L15.3571429,550.775285 L16.4285714,550.775285 L16.4285714,550.775285 Z M15,552.915191 L13.75,552.915191 L13.75,550.775285 L15,550.775285 L15,552.915191 L15,552.915191 Z M13.3928571,552.915191 L12.1428571,552.915191 L12.1428571,550.775285 L13.3928571,550.775285 L13.3928571,552.915191 L13.3928571,552.915191 Z M16.4285714,553.093516 L16.4285714,555.590073 L12.1428571,555.590073 L12.1428571,553.093516 L16.4285714,553.093516 L16.4285714,553.093516 Z M104.464286,577.167454 L100.357143,577.167454 L100.357143,578.594057 L104.464286,578.594057 L104.464286,577.167454 L104.464286,577.167454 Z M99.6428571,580.198987 L102.321429,580.198987 L102.321429,581.982241 L99.6428571,581.982241 L99.6428571,580.198987 L99.6428571,580.198987 Z M102.678571,580.198987 L105.357143,580.198987 L105.357143,581.982241 L102.678571,581.982241 L102.678571,580.198987 L102.678571,580.198987 Z M105.357143,582.160567 L105.357143,583.765496 L102.678571,583.765496 L102.678571,582.160567 L105.357143,582.160567 L105.357143,582.160567 Z M105.357143,584.122147 L105.357143,585.727076 L102.678571,585.727076 L102.678571,584.122147 L105.357143,584.122147 L105.357143,584.122147 Z M105.357143,585.905401 L105.357143,587.510331 L102.678571,587.510331 L102.678571,585.905401 L105.357143,585.905401 L105.357143,585.905401 Z M105.357143,587.866982 L105.357143,589.471911 L102.678571,589.471911 L102.678571,587.866982 L105.357143,587.866982 L105.357143,587.866982 Z M105.357143,589.650236 L105.357143,591.433491 L102.678571,591.433491 L102.678571,589.650236 L105.357143,589.650236 L105.357143,589.650236 Z M102.321429,591.433491 L99.6428571,591.433491 L99.6428571,589.650236 L102.321429,589.650236 L102.321429,591.433491 L102.321429,591.433491 Z M99.6428571,589.471911 L99.6428571,587.866982 L102.321429,587.866982 L102.321429,589.471911 L99.6428571,589.471911 L99.6428571,589.471911 Z M99.6428571,587.510331 L99.6428571,585.905401 L102.321429,585.905401 L102.321429,587.510331 L99.6428571,587.510331 L99.6428571,587.510331 Z M99.6428571,585.727076 L99.6428571,584.122147 L102.321429,584.122147 L102.321429,585.727076 L99.6428571,585.727076 L99.6428571,585.727076 Z M99.6428571,583.765496 L99.6428571,582.160567 L102.321429,582.160567 L102.321429,583.765496 L99.6428571,583.765496 L99.6428571,583.765496 Z M51.4285714,539.897432 L51.4285714,538.470828 L32.1428571,538.470828 L32.1428571,539.897432 L32.1428571,575.205874 L51.4285714,575.205874 L51.4285714,539.897432 L51.4285714,539.897432 Z M43.5714286,578.059081 L44.6428571,578.059081 L50.3571429,578.059081 L50.3571429,588.401958 L44.6428571,588.401958 L43.5714286,588.401958 L42.1428571,588.401958 L42.1428571,578.059081 L43.5714286,578.059081 L43.5714286,578.059081 Z M38.5714286,547.565427 L45,547.565427 L45.5357143,547.565427 L45.5357143,547.922078 L45,547.922078 L45,556.4817 L38.5714286,556.4817 L38.5714286,547.922078 L38.0357143,547.922078 L38.0357143,547.565427 L38.5714286,547.565427 L38.5714286,547.565427 Z M38.5714286,559.691558 L45,559.691558 L45.5357143,559.691558 L45.5357143,560.226535 L45,560.226535 L45,568.786157 L38.5714286,568.786157 L38.5714286,560.226535 L38.0357143,560.226535 L38.0357143,559.691558 L38.5714286,559.691558 L38.5714286,559.691558 Z M39.6428571,560.583186 L40.8928571,560.583186 L40.8928571,562.544766 L39.6428571,562.544766 L39.6428571,560.583186 L39.6428571,560.583186 Z M41.0714286,560.583186 L42.5,560.583186 L42.5,562.544766 L41.0714286,562.544766 L41.0714286,560.583186 L41.0714286,560.583186 Z M42.6785714,560.583186 L43.9285714,560.583186 L43.9285714,562.544766 L42.6785714,562.544766 L42.6785714,560.583186 L42.6785714,560.583186 Z M43.9285714,562.723091 L43.9285714,565.041322 L42.6785714,565.041322 L42.6785714,562.723091 L43.9285714,562.723091 L43.9285714,562.723091 Z M42.5,565.041322 L41.0714286,565.041322 L41.0714286,562.723091 L42.5,562.723091 L42.5,565.041322 L42.5,565.041322 Z M40.8928571,565.041322 L39.6428571,565.041322 L39.6428571,562.723091 L40.8928571,562.723091 L40.8928571,565.041322 L40.8928571,565.041322 Z M43.9285714,565.219648 L43.9285714,567.716204 L39.6428571,567.716204 L39.6428571,565.219648 L43.9285714,565.219648 L43.9285714,565.219648 Z M39.6428571,548.457054 L40.8928571,548.457054 L40.8928571,550.418634 L39.6428571,550.418634 L39.6428571,548.457054 L39.6428571,548.457054 Z M41.0714286,548.457054 L42.5,548.457054 L42.5,550.418634 L41.0714286,550.418634 L41.0714286,548.457054 L41.0714286,548.457054 Z M42.6785714,548.457054 L43.9285714,548.457054 L43.9285714,550.418634 L42.6785714,550.418634 L42.6785714,548.457054 L42.6785714,548.457054 Z M43.9285714,550.59696 L43.9285714,552.736865 L42.6785714,552.736865 L42.6785714,550.59696 L43.9285714,550.59696 L43.9285714,550.59696 Z M42.5,552.736865 L41.0714286,552.736865 L41.0714286,550.59696 L42.5,550.59696 L42.5,552.736865 L42.5,552.736865 Z M40.8928571,552.736865 L39.6428571,552.736865 L39.6428571,550.59696 L40.8928571,550.59696 L40.8928571,552.736865 L40.8928571,552.736865 Z M43.9285714,553.093516 L43.9285714,555.590073 L39.6428571,555.590073 L39.6428571,553.093516 L43.9285714,553.093516 L43.9285714,553.093516 Z M78.5714286,567.537879 L78.5714286,568.607832 L77.5,568.607832 L74.6428571,568.607832 L73.5714286,568.607832 L71.6071429,568.607832 L71.25,568.607832 L69.2857143,568.607832 L69.1071429,568.607832 L67.1428571,568.607832 L66.0714286,568.607832 L63.0357143,568.607832 L61.9642857,568.607832 L61.9642857,567.537879 L61.9642857,565.754624 L61.9642857,565.576299 L61.9642857,563.97137 L61.9642857,563.614719 L61.9642857,562.009789 L61.9642857,561.653139 L61.9642857,560.048209 L61.9642857,559.869884 L61.9642857,558.264955 L61.9642857,557.908304 L61.9642857,556.303375 L61.9642857,555.768398 L61.0714286,555.768398 L61.0714286,555.233422 L61.9642857,555.233422 L63.0357143,555.233422 L66.0714286,555.233422 L67.1428571,555.233422 L69.1071429,555.233422 L69.2857143,555.233422 L71.25,555.233422 L71.6071429,555.233422 L73.5714286,555.233422 L74.6428571,555.233422 L77.5,555.233422 L78.5714286,555.233422 L79.6428571,555.233422 L79.6428571,555.768398 L78.5714286,555.768398 L78.5714286,556.303375 L78.5714286,557.908304 L78.5714286,558.264955 L78.5714286,559.869884 L78.5714286,560.048209 L78.5714286,561.653139 L78.5714286,562.009789 L78.5714286,563.614719 L78.5714286,563.97137 L78.5714286,565.576299 L78.5714286,565.754624 L78.5714286,567.537879 L78.5714286,567.537879 Z M82.1428571,551.666913 L81.0714286,551.666913 L79.1071429,551.666913 L78.9285714,551.666913 L76.9642857,551.666913 L76.6071429,551.666913 L74.6428571,551.666913 L73.5714286,551.666913 L72.5,551.666913 L72.5,551.131936 L73.5714286,551.131936 L73.5714286,550.59696 L73.5714286,548.813705 L73.5714286,548.63538 L73.5714286,547.030451 L73.5714286,546.6738 L73.5714286,545.068871 L73.5714286,544.890545 L73.5714286,543.10729 L73.5714286,542.928965 L73.5714286,541.324036 L73.5714286,540.967385 L73.5714286,539.362456 L73.5714286,538.827479 L72.5,538.827479 L72.5,538.292503 L73.5714286,538.292503 L74.6428571,538.292503 L76.6071429,538.292503 L76.9642857,538.292503 L78.9285714,538.292503 L79.1071429,538.292503 L81.0714286,538.292503 L82.1428571,538.292503 L83.2142857,538.292503 L83.2142857,538.827479 L82.1428571,538.827479 L82.1428571,539.362456 L82.1428571,540.967385 L82.1428571,541.324036 L82.1428571,542.928965 L82.1428571,543.10729 L82.1428571,544.890545 L82.1428571,545.068871 L82.1428571,546.6738 L82.1428571,547.030451 L82.1428571,548.63538 L82.1428571,548.813705 L82.1428571,550.59696 L82.1428571,551.131936 L83.2142857,551.131936 L83.2142857,551.666913 L82.1428571,551.666913 L82.1428571,551.666913 Z M79.1071429,539.362456 L79.1071429,540.967385 L81.0714286,540.967385 L81.0714286,539.362456 L79.1071429,539.362456 L79.1071429,539.362456 Z M81.0714286,541.324036 L79.1071429,541.324036 L79.1071429,542.928965 L81.0714286,542.928965 L81.0714286,541.324036 L81.0714286,541.324036 Z M81.0714286,543.10729 L79.1071429,543.10729 L79.1071429,544.890545 L81.0714286,544.890545 L81.0714286,543.10729 L81.0714286,543.10729 Z M81.0714286,545.068871 L79.1071429,545.068871 L79.1071429,546.6738 L81.0714286,546.6738 L81.0714286,545.068871 L81.0714286,545.068871 Z M81.0714286,547.030451 L79.1071429,547.030451 L79.1071429,548.63538 L81.0714286,548.63538 L81.0714286,547.030451 L81.0714286,547.030451 Z M81.0714286,548.813705 L79.1071429,548.813705 L79.1071429,550.59696 L81.0714286,550.59696 L81.0714286,548.813705 L81.0714286,548.813705 Z M78.9285714,550.59696 L78.9285714,548.813705 L76.9642857,548.813705 L76.9642857,550.59696 L78.9285714,550.59696 L78.9285714,550.59696 Z M76.6071429,550.59696 L76.6071429,548.813705 L74.6428571,548.813705 L74.6428571,550.59696 L76.6071429,550.59696 L76.6071429,550.59696 Z M74.6428571,548.63538 L76.6071429,548.63538 L76.6071429,547.030451 L74.6428571,547.030451 L74.6428571,548.63538 L74.6428571,548.63538 Z M74.6428571,546.6738 L76.6071429,546.6738 L76.6071429,545.068871 L74.6428571,545.068871 L74.6428571,546.6738 L74.6428571,546.6738 Z M74.6428571,544.890545 L76.6071429,544.890545 L76.6071429,543.10729 L74.6428571,543.10729 L74.6428571,544.890545 L74.6428571,544.890545 Z M74.6428571,542.928965 L76.6071429,542.928965 L76.6071429,541.324036 L74.6428571,541.324036 L74.6428571,542.928965 L74.6428571,542.928965 Z M74.6428571,540.967385 L76.6071429,540.967385 L76.6071429,539.362456 L74.6428571,539.362456 L74.6428571,540.967385 L74.6428571,540.967385 Z M76.9642857,539.362456 L76.9642857,540.967385 L78.9285714,540.967385 L78.9285714,539.362456 L76.9642857,539.362456 L76.9642857,539.362456 Z M78.9285714,548.63538 L78.9285714,547.030451 L76.9642857,547.030451 L76.9642857,548.63538 L78.9285714,548.63538 L78.9285714,548.63538 Z M78.9285714,546.6738 L78.9285714,545.068871 L76.9642857,545.068871 L76.9642857,546.6738 L78.9285714,546.6738 L78.9285714,546.6738 Z M78.9285714,543.10729 L76.9642857,543.10729 L76.9642857,544.890545 L78.9285714,544.890545 L78.9285714,543.10729 L78.9285714,543.10729 Z M76.9642857,542.928965 L78.9285714,542.928965 L78.9285714,541.324036 L76.9642857,541.324036 L76.9642857,542.928965 L76.9642857,542.928965 Z M67.1428571,551.666913 L66.0714286,551.666913 L64.1071429,551.666913 L63.75,551.666913 L61.7857143,551.666913 L61.4285714,551.666913 L59.4642857,551.666913 L58.3928571,551.666913 L57.3214286,551.666913 L57.3214286,551.131936 L58.3928571,551.131936 L58.3928571,550.59696 L58.3928571,548.813705 L58.3928571,548.63538 L58.3928571,547.030451 L58.3928571,546.6738 L58.3928571,545.068871 L58.3928571,544.890545 L58.3928571,543.10729 L58.3928571,542.928965 L58.3928571,541.324036 L58.3928571,540.967385 L58.3928571,539.362456 L58.3928571,538.827479 L57.3214286,538.827479 L57.3214286,538.292503 L58.3928571,538.292503 L59.4642857,538.292503 L61.4285714,538.292503 L61.7857143,538.292503 L63.75,538.292503 L64.1071429,538.292503 L66.0714286,538.292503 L67.1428571,538.292503 L68.2142857,538.292503 L68.2142857,538.827479 L67.1428571,538.827479 L67.1428571,539.362456 L67.1428571,540.967385 L67.1428571,541.324036 L67.1428571,542.928965 L67.1428571,543.10729 L67.1428571,544.890545 L67.1428571,545.068871 L67.1428571,546.6738 L67.1428571,547.030451 L67.1428571,548.63538 L67.1428571,548.813705 L67.1428571,550.59696 L67.1428571,551.131936 L68.2142857,551.131936 L68.2142857,551.666913 L67.1428571,551.666913 L67.1428571,551.666913 Z M64.1071429,539.362456 L64.1071429,540.967385 L66.0714286,540.967385 L66.0714286,539.362456 L64.1071429,539.362456 L64.1071429,539.362456 Z M66.0714286,541.324036 L64.1071429,541.324036 L64.1071429,542.928965 L66.0714286,542.928965 L66.0714286,541.324036 L66.0714286,541.324036 Z M66.0714286,543.10729 L64.1071429,543.10729 L64.1071429,544.890545 L66.0714286,544.890545 L66.0714286,543.10729 L66.0714286,543.10729 Z M66.0714286,545.068871 L64.1071429,545.068871 L64.1071429,546.6738 L66.0714286,546.6738 L66.0714286,545.068871 L66.0714286,545.068871 Z M66.0714286,547.030451 L64.1071429,547.030451 L64.1071429,548.63538 L66.0714286,548.63538 L66.0714286,547.030451 L66.0714286,547.030451 Z M66.0714286,548.813705 L64.1071429,548.813705 L64.1071429,550.59696 L66.0714286,550.59696 L66.0714286,548.813705 L66.0714286,548.813705 Z M63.75,550.59696 L63.75,548.813705 L61.7857143,548.813705 L61.7857143,550.59696 L63.75,550.59696 L63.75,550.59696 Z M61.4285714,550.59696 L61.4285714,548.813705 L59.4642857,548.813705 L59.4642857,550.59696 L61.4285714,550.59696 L61.4285714,550.59696 Z M59.4642857,548.63538 L61.4285714,548.63538 L61.4285714,547.030451 L59.4642857,547.030451 L59.4642857,548.63538 L59.4642857,548.63538 Z M59.4642857,546.6738 L61.4285714,546.6738 L61.4285714,545.068871 L59.4642857,545.068871 L59.4642857,546.6738 L59.4642857,546.6738 Z M59.4642857,544.890545 L61.4285714,544.890545 L61.4285714,543.10729 L59.4642857,543.10729 L59.4642857,544.890545 L59.4642857,544.890545 Z M59.4642857,542.928965 L61.4285714,542.928965 L61.4285714,541.324036 L59.4642857,541.324036 L59.4642857,542.928965 L59.4642857,542.928965 Z M59.4642857,540.967385 L61.4285714,540.967385 L61.4285714,539.362456 L59.4642857,539.362456 L59.4642857,540.967385 L59.4642857,540.967385 Z M61.7857143,539.362456 L61.7857143,540.967385 L63.75,540.967385 L63.75,539.362456 L61.7857143,539.362456 L61.7857143,539.362456 Z M63.75,548.63538 L63.75,547.030451 L61.7857143,547.030451 L61.7857143,548.63538 L63.75,548.63538 L63.75,548.63538 Z M63.75,546.6738 L63.75,545.068871 L61.7857143,545.068871 L61.7857143,546.6738 L63.75,546.6738 L63.75,546.6738 Z M63.75,543.10729 L61.7857143,543.10729 L61.7857143,544.890545 L63.75,544.890545 L63.75,543.10729 L63.75,543.10729 Z M61.7857143,542.928965 L63.75,542.928965 L63.75,541.324036 L61.7857143,541.324036 L61.7857143,542.928965 L61.7857143,542.928965 Z M71.6071429,556.303375 L71.6071429,557.908304 L73.5714286,557.908304 L73.5714286,556.303375 L71.6071429,556.303375 L71.6071429,556.303375 Z M74.6428571,557.908304 L77.5,557.908304 L77.5,556.303375 L74.6428571,556.303375 L74.6428571,557.908304 L74.6428571,557.908304 Z M77.5,558.264955 L74.6428571,558.264955 L74.6428571,559.869884 L77.5,559.869884 L77.5,558.264955 L77.5,558.264955 Z M73.5714286,558.264955 L71.6071429,558.264955 L71.6071429,559.869884 L73.5714286,559.869884 L73.5714286,558.264955 L73.5714286,558.264955 Z M77.5,560.048209 L74.6428571,560.048209 L74.6428571,561.653139 L77.5,561.653139 L77.5,560.048209 L77.5,560.048209 Z M73.5714286,560.048209 L71.6071429,560.048209 L71.6071429,561.653139 L73.5714286,561.653139 L73.5714286,560.048209 L73.5714286,560.048209 Z M77.5,562.009789 L74.6428571,562.009789 L74.6428571,563.614719 L77.5,563.614719 L77.5,562.009789 L77.5,562.009789 Z M73.5714286,562.009789 L71.6071429,562.009789 L71.6071429,563.614719 L73.5714286,563.614719 L73.5714286,562.009789 L73.5714286,562.009789 Z M77.5,563.97137 L74.6428571,563.97137 L74.6428571,565.576299 L77.5,565.576299 L77.5,563.97137 L77.5,563.97137 Z M73.5714286,563.97137 L71.6071429,563.97137 L71.6071429,565.576299 L73.5714286,565.576299 L73.5714286,563.97137 L73.5714286,563.97137 Z M77.5,565.754624 L74.6428571,565.754624 L74.6428571,567.537879 L77.5,567.537879 L77.5,565.754624 L77.5,565.754624 Z M73.5714286,565.754624 L71.6071429,565.754624 L71.6071429,567.537879 L73.5714286,567.537879 L73.5714286,565.754624 L73.5714286,565.754624 Z M71.25,567.537879 L71.25,565.754624 L69.2857143,565.754624 L69.2857143,567.537879 L71.25,567.537879 L71.25,567.537879 Z M69.1071429,567.537879 L69.1071429,565.754624 L67.1428571,565.754624 L67.1428571,567.537879 L69.1071429,567.537879 L69.1071429,567.537879 Z M66.0714286,565.754624 L63.0357143,565.754624 L63.0357143,567.537879 L66.0714286,567.537879 L66.0714286,565.754624 L66.0714286,565.754624 Z M63.0357143,565.576299 L66.0714286,565.576299 L66.0714286,563.97137 L63.0357143,563.97137 L63.0357143,565.576299 L63.0357143,565.576299 Z M67.1428571,565.576299 L69.1071429,565.576299 L69.1071429,563.97137 L67.1428571,563.97137 L67.1428571,565.576299 L67.1428571,565.576299 Z M63.0357143,563.614719 L66.0714286,563.614719 L66.0714286,562.009789 L63.0357143,562.009789 L63.0357143,563.614719 L63.0357143,563.614719 Z M67.1428571,563.614719 L69.1071429,563.614719 L69.1071429,562.009789 L67.1428571,562.009789 L67.1428571,563.614719 L67.1428571,563.614719 Z M63.0357143,561.653139 L66.0714286,561.653139 L66.0714286,560.048209 L63.0357143,560.048209 L63.0357143,561.653139 L63.0357143,561.653139 Z M67.1428571,561.653139 L69.1071429,561.653139 L69.1071429,560.048209 L67.1428571,560.048209 L67.1428571,561.653139 L67.1428571,561.653139 Z M63.0357143,559.869884 L66.0714286,559.869884 L66.0714286,558.264955 L63.0357143,558.264955 L63.0357143,559.869884 L63.0357143,559.869884 Z M67.1428571,559.869884 L69.1071429,559.869884 L69.1071429,558.264955 L67.1428571,558.264955 L67.1428571,559.869884 L67.1428571,559.869884 Z M63.0357143,557.908304 L66.0714286,557.908304 L66.0714286,556.303375 L63.0357143,556.303375 L63.0357143,557.908304 L63.0357143,557.908304 Z M67.1428571,557.908304 L69.1071429,557.908304 L69.1071429,556.303375 L67.1428571,556.303375 L67.1428571,557.908304 L67.1428571,557.908304 Z M69.2857143,556.303375 L69.2857143,557.908304 L71.25,557.908304 L71.25,556.303375 L69.2857143,556.303375 L69.2857143,556.303375 Z M71.25,565.576299 L71.25,563.97137 L69.2857143,563.97137 L69.2857143,565.576299 L71.25,565.576299 L71.25,565.576299 Z M71.25,563.614719 L71.25,562.009789 L69.2857143,562.009789 L69.2857143,563.614719 L71.25,563.614719 L71.25,563.614719 Z M71.25,560.048209 L69.2857143,560.048209 L69.2857143,561.653139 L71.25,561.653139 L71.25,560.048209 L71.25,560.048209 Z M69.2857143,559.869884 L71.25,559.869884 L71.25,558.264955 L69.2857143,558.264955 L69.2857143,559.869884 L69.2857143,559.869884 Z M86.6071429,575.027548 L78.5714286,575.027548 L78.5714286,588.401958 L86.6071429,588.401958 L86.6071429,575.027548 L86.6071429,575.027548 Z M53.9285714,588.401958 L61.9642857,588.401958 L61.9642857,575.027548 L53.9285714,575.027548 L53.9285714,588.401958 L53.9285714,588.401958 Z" id="pattern"></path>
        </g>
    </g>
</svg>